<svg id="Layer_1" data-name="Layer 1" xmlns="http://www.w3.org/2000/svg" width="710" height="353.13" viewBox="0 0 710 353.13"><defs><style>.cls-1,.cls-3{fill:none;stroke:#afafaf;stroke-width:8px;}.cls-1{stroke-miterlimit:10;}.cls-2{fill:#afafaf;}.cls-3{stroke-linejoin:bevel;}.cls-4{fill:#3fa0ec;}.cls-5{font-size:18.04px;}.cls-5,.cls-7{fill:#fff;font-family:SegoeUI, Segoe UI;}.cls-6{letter-spacing:-0.04em;}.cls-7{font-size:18px;}.cls-8{letter-spacing:-0.03em;}.cls-9{letter-spacing:-0.04em;}</style></defs><title>n-tier-logical</title><line class="cls-1" x1="475.85" y1="209.83" x2="605" y2="209.38"/><polygon class="cls-2" points="478.81 219.79 461.5 209.88 478.74 199.85 478.81 219.79"/><line class="cls-1" x1="462" y1="36.38" x2="590.65" y2="36.38"/><polygon class="cls-2" points="587.73 46.35 605 36.38 587.73 26.41 587.73 46.35"/><line class="cls-1" x1="461" y1="104.38" x2="590.65" y2="105.28"/><polygon class="cls-2" points="587.66 115.23 605 105.38 587.8 95.29 587.66 115.23"/><line class="cls-3" x1="461" y1="272.87" x2="591.65" y2="272.7"/><polygon class="cls-2" points="588.74 282.68 606 272.68 588.72 262.73 588.74 282.68"/><line class="cls-1" x1="475.85" y1="143.83" x2="605" y2="143.38"/><polygon class="cls-2" points="478.81 153.79 461.5 143.88 478.74 133.85 478.81 153.79"/><line class="cls-1" x1="170" y1="272.78" x2="371.15" y2="272.78"/><polygon class="cls-2" points="368.23 282.75 385.5 272.77 368.23 262.8 368.23 282.75"/><rect class="cls-4" x="113" y="0.38" width="76" height="352.75" rx="8" ry="8"/><text class="cls-5" transform="translate(132.95 169.75)"><tspan class="cls-6">W</tspan><tspan x="16.14" y="0">eb</tspan><tspan x="3.33" y="21.65">Tier</tspan></text><rect class="cls-4" x="386" width="76" height="186" rx="8" ry="8"/><text class="cls-7" transform="translate(396.25 86.01)">Middle<tspan x="5.7" y="21.6">Tier 1</tspan></text><rect class="cls-4" x="386" y="193.78" width="76" height="158" rx="8" ry="8"/><text class="cls-7" transform="translate(396.25 266.59)">Middle<tspan x="5.7" y="21.6">Tier 2</tspan></text><rect class="cls-4" x="215.06" y="242.73" width="115.75" height="60.1" rx="8" ry="8"/><text class="cls-7" transform="translate(230.06 276.59)">Messaging</text><rect class="cls-4" x="505.25" y="121.38" width="69" height="109" rx="8" ry="8"/><text class="cls-7" transform="translate(515.64 179.69)">Cache</text><line class="cls-1" x1="189" y1="92.75" x2="371.15" y2="93.21"/><polygon class="cls-2" points="368.2 103.18 385.5 93.25 368.25 83.23 368.2 103.18"/><rect class="cls-4" x="605" width="105" height="73" rx="8" ry="8"/><text class="cls-7" transform="translate(626.89 29.51)"><tspan class="cls-8">R</tspan><tspan x="10.24" y="0">emote</tspan><tspan x="2.64" y="21.6">Service</tspan></text><rect class="cls-4" x="605" y="81.78" width="105" height="270" rx="8" ry="8"/><text class="cls-7" transform="translate(620.59 220.58)">Database</text><rect class="cls-4" y="71.64" width="76" height="211.99" rx="8" ry="8"/><text class="cls-7" transform="translate(19.74 181.44)"><tspan class="cls-9">W</tspan><tspan x="16.11" y="0">AF</tspan></text><line class="cls-1" x1="76" y1="177.88" x2="96.65" y2="177.59"/><polygon class="cls-2" points="93.87 187.6 111 177.38 93.59 167.66 93.87 187.6"/></svg>